<?xml version="1.0" encoding="UTF-8"?>
<!DOCTYPE svg PUBLIC "-//W3C//DTD SVG 1.1//EN" "http://www.w3.org/Graphics/SVG/1.1/DTD/svg11.dtd">
<svg xmlns="http://www.w3.org/2000/svg" version="1.1" width="800px" height="200px" style="shape-rendering:geometricPrecision; text-rendering:geometricPrecision; image-rendering:optimizeQuality; fill-rule:evenodd; clip-rule:evenodd" xmlns:xlink="http://www.w3.org/1999/xlink">
<g><path style="opacity:0.977" fill="#a3171c" d="M 65.5,9.5 C 69.3311,9.24905 72.6644,10.4157 75.5,13C 111.222,39.0548 147.222,64.7215 183.5,90C 186.207,91.8637 187.041,94.3637 186,97.5C 149.411,124.211 112.911,151.045 76.5,178C 73.126,181.254 69.2926,182.088 65,180.5C 64.1712,123.43 64.3379,66.4295 65.5,9.5 Z M 71.5,20.5 C 106.314,45.0786 140.98,69.9119 175.5,95C 141.167,120.167 106.833,145.333 72.5,170.5C 71.5001,120.504 71.1667,70.5044 71.5,20.5 Z"/></g>
<g><path style="opacity:0.992" fill="#f9e2d1" d="M 223.5,61.5 C 235.505,61.3335 247.505,61.5001 259.5,62C 272.765,66.6991 276.598,75.5324 271,88.5C 269.457,90.3783 267.624,91.8783 265.5,93C 278.23,100.542 280.73,110.709 273,123.5C 269.748,127.366 265.581,129.533 260.5,130C 248.171,130.5 235.838,130.667 223.5,130.5C 223.5,107.5 223.5,84.5 223.5,61.5 Z M 234.5,69.5 C 242.547,69.2773 250.547,69.7773 258.5,71C 263.803,75.2726 264.803,80.4392 261.5,86.5C 260.335,87.5836 259.002,88.4169 257.5,89C 249.895,90.3115 242.228,90.8115 234.5,90.5C 234.5,83.5 234.5,76.5 234.5,69.5 Z M 234.5,98.5 C 242.886,98.2133 251.219,98.7133 259.5,100C 266.115,103.843 267.948,109.343 265,116.5C 263.457,118.378 261.624,119.878 259.5,121C 251.227,122.33 242.893,122.83 234.5,122.5C 234.5,114.5 234.5,106.5 234.5,98.5 Z"/></g>
<g><path style="opacity:1" fill="#f9e3cf" d="M 339.5,61.5 C 342.833,61.5 346.167,61.5 349.5,61.5C 349.5,84.5 349.5,107.5 349.5,130.5C 346.167,130.5 342.833,130.5 339.5,130.5C 339.5,107.5 339.5,84.5 339.5,61.5 Z"/></g>
<g><path style="opacity:0.99" fill="#f8e2d2" d="M 361.5,61.5 C 364.833,61.5 368.167,61.5 371.5,61.5C 371.333,73.8378 371.5,86.1712 372,98.5C 377.682,92.9854 383.182,87.3187 388.5,81.5C 392.795,80.3391 397.129,80.1725 401.5,81C 395.318,87.0145 389.318,93.1812 383.5,99.5C 389.97,109.802 396.637,119.969 403.5,130C 399.459,130.827 395.459,130.66 391.5,129.5C 386.084,121.67 380.917,113.67 376,105.5C 374.667,106.833 373.333,108.167 372,109.5C 371.5,116.492 371.334,123.492 371.5,130.5C 368.167,130.5 364.833,130.5 361.5,130.5C 361.5,107.5 361.5,84.5 361.5,61.5 Z"/></g>
<g><path style="opacity:0.973" fill="#f8e1d0" d="M 410.5,61.5 C 424.504,61.3334 438.504,61.5001 452.5,62C 463.252,65.6619 467.752,73.1619 466,84.5C 462.92,92.5739 457.087,97.4072 448.5,99C 451.63,101.128 454.463,103.628 457,106.5C 461.833,114.167 466.667,121.833 471.5,129.5C 467.167,130.833 462.833,130.833 458.5,129.5C 453.142,119.645 446.809,110.478 439.5,102C 433.376,99.8221 427.042,98.9887 420.5,99.5C 420.5,109.833 420.5,120.167 420.5,130.5C 417.167,130.5 413.833,130.5 410.5,130.5C 410.5,107.5 410.5,84.5 410.5,61.5 Z M 420.5,69.5 C 430.224,69.1411 439.891,69.6411 449.5,71C 456.017,75.2446 457.183,80.7446 453,87.5C 451.581,88.4601 450.081,89.2935 448.5,90C 439.218,91.3159 429.884,91.8159 420.5,91.5C 420.5,84.1667 420.5,76.8333 420.5,69.5 Z"/></g>
<g><path style="opacity:0.982" fill="#f8e2d0" d="M 492.5,79.5 C 512.441,78.1057 522.441,87.4391 522.5,107.5C 510.167,107.5 497.833,107.5 485.5,107.5C 486.709,119.933 493.376,124.767 505.5,122C 507.976,120.691 509.976,118.858 511.5,116.5C 514.446,115.345 517.446,115.179 520.5,116C 519.993,123.87 515.66,128.87 507.5,131C 482.727,133.555 472.227,122.389 476,97.5C 478.111,88.2024 483.611,82.2024 492.5,79.5 Z M 497.5,87.5 C 505.654,87.6657 510.321,91.6657 511.5,99.5C 502.827,99.6664 494.16,99.4998 485.5,99C 487.454,92.876 491.454,89.0426 497.5,87.5 Z"/></g>
<g><path style="opacity:0.985" fill="#f9e3d1" d="M 548.5,79.5 C 553.93,79.161 559.264,79.661 564.5,81C 567.333,82.5 569.5,84.6667 571,87.5C 572.449,101.761 572.949,116.094 572.5,130.5C 569.167,130.5 565.833,130.5 562.5,130.5C 562.667,118.495 562.5,106.495 562,94.5C 560.592,90.2782 557.592,87.9448 553,87.5C 547.86,88.2285 544.193,90.8951 542,95.5C 541.5,107.162 541.333,118.829 541.5,130.5C 537.833,130.5 534.167,130.5 530.5,130.5C 530.5,113.833 530.5,97.1667 530.5,80.5C 533.833,80.5 537.167,80.5 540.5,80.5C 540.343,81.8734 540.51,83.2068 541,84.5C 543.426,82.5476 545.926,80.881 548.5,79.5 Z"/></g>
<g><path style="opacity:0.978" fill="#f8e1d0" d="M 597.5,79.5 C 603.176,79.3339 608.843,79.5006 614.5,80C 618.468,80.9643 621.635,83.1309 624,86.5C 625.27,98.0958 625.936,109.762 626,121.5C 626.147,124.571 626.98,127.404 628.5,130C 624.848,130.499 621.182,130.665 617.5,130.5C 617.778,128.654 617.111,127.32 615.5,126.5C 608.189,131.23 600.189,132.73 591.5,131C 582.899,127.631 579.732,121.465 582,112.5C 584.451,106.384 588.951,102.884 595.5,102C 601.908,101.157 608.241,99.99 614.5,98.5C 616.458,94.2726 615.458,91.106 611.5,89C 606.039,87.0291 600.706,87.3625 595.5,90C 594.128,91.2419 593.128,92.7419 592.5,94.5C 588.932,95.9696 585.599,95.6363 582.5,93.5C 585.015,85.9791 590.015,81.3124 597.5,79.5 Z M 612.5,107.5 C 613.5,107.5 614.5,107.5 615.5,107.5C 616.86,114.617 614.193,119.451 607.5,122C 602.36,124.338 597.527,123.838 593,120.5C 590.426,115.967 591.592,112.8 596.5,111C 602.014,110.055 607.348,108.889 612.5,107.5 Z"/></g>
<g><path style="opacity:0.971" fill="#f9e2d1" d="M 655.5,79.5 C 664.324,77.4399 671.157,80.1066 676,87.5C 681.33,80.0986 688.497,77.5986 697.5,80C 704.823,82.4547 708.323,87.6213 708,95.5C 708.5,107.162 708.667,118.829 708.5,130.5C 704.833,130.5 701.167,130.5 697.5,130.5C 697.667,117.829 697.5,105.162 697,92.5C 693.073,86.9814 688.24,86.1481 682.5,90C 680.106,91.9522 678.606,94.4522 678,97.5C 677.5,108.495 677.333,119.495 677.5,130.5C 674.167,130.5 670.833,130.5 667.5,130.5C 667.667,118.162 667.5,105.829 667,93.5C 665.73,89.8441 663.064,87.8441 659,87.5C 653.094,88.4074 649.427,91.7408 648,97.5C 647.5,108.495 647.333,119.495 647.5,130.5C 644.167,130.5 640.833,130.5 637.5,130.5C 637.5,113.833 637.5,97.1667 637.5,80.5C 640.5,80.5 643.5,80.5 646.5,80.5C 646.34,82.1992 646.506,83.8659 647,85.5C 649.322,82.6047 652.155,80.6047 655.5,79.5 Z"/></g>
<g><path style="opacity:0.982" fill="#f8e2d0" d="M 733.5,79.5 C 753.441,78.1057 763.441,87.4391 763.5,107.5C 751.167,107.5 738.833,107.5 726.5,107.5C 727.709,119.933 734.376,124.767 746.5,122C 748.976,120.691 750.976,118.858 752.5,116.5C 755.446,115.345 758.446,115.179 761.5,116C 760.993,123.87 756.66,128.87 748.5,131C 723.727,133.555 713.227,122.389 717,97.5C 719.111,88.2024 724.611,82.2024 733.5,79.5 Z M 738.5,87.5 C 746.654,87.6657 751.321,91.6657 752.5,99.5C 743.827,99.6664 735.16,99.4998 726.5,99C 728.454,92.876 732.454,89.0426 738.5,87.5 Z"/></g>
<g><path style="opacity:0.986" fill="#f9e2d1" d="M 286.5,80.5 C 289.833,80.5 293.167,80.5 296.5,80.5C 296.102,93.2192 296.602,105.886 298,118.5C 302.361,123.947 307.528,124.78 313.5,121C 315.049,119.786 316.215,118.286 317,116.5C 318.415,104.562 318.915,92.5621 318.5,80.5C 321.833,80.5 325.167,80.5 328.5,80.5C 328.5,97.1667 328.5,113.833 328.5,130.5C 325.5,130.5 322.5,130.5 319.5,130.5C 319.662,128.473 319.495,126.473 319,124.5C 312.554,131.597 304.721,133.431 295.5,130C 290.286,127.453 287.453,123.286 287,117.5C 286.5,105.171 286.333,92.8378 286.5,80.5 Z"/></g>
</svg>
